<?xml version="1.0" encoding="UTF-8"?>
<svg width="27px" height="27px" viewBox="0 0 27 27" version="1.1" xmlns="http://www.w3.org/2000/svg" xmlns:xlink="http://www.w3.org/1999/xlink">
    <!-- Generator: Sketch 55.2 (78181) - https://sketchapp.com -->
    <title>bt</title>
    <desc>Created with Sketch.</desc>
    <g id="Page-1" stroke="none" stroke-width="1" fill="none" fill-rule="evenodd">
        <g id="-flash-card-2" transform="translate(-597.000000, -524.000000)" fill="#A9A9A9" fill-rule="nonzero">
            <path d="M617.25,537.43487 C617.25,540.138676 615.72,542.474894 613.500023,543.608463 L613.500023,531.268888 C615.72,532.394846 617.25,534.731064 617.25,537.43487 Z M597,532.839125 L602.999977,532.839125 L610.5,525.179527 L610.5,549.690213 L602.999977,542.030614 L597,542.030614 L597,532.839125 Z M613.500023,524 C619.507523,525.394019 624,530.870638 624,537.43487 C624,543.999101 619.507523,549.475721 613.500023,550.869739 L613.500023,547.706359 C617.835,546.388888 620.999977,542.291064 620.999977,537.43487 C620.999977,532.578676 617.835,528.480851 613.500023,527.16338 L613.500023,524 Z" id="bt"></path>
        </g>
    </g>
</svg>